<?xml version="1.0" encoding="UTF-8" standalone="no"?>
<svg width="180.622mm" height="63.5mm"
 xmlns="http://www.w3.org/2000/svg" xmlns:xlink="http://www.w3.org/1999/xlink"  version="1.2" baseProfile="tiny">
<title>Qt SVG Document</title>
<desc>Generated with Qt</desc>
<defs>
</defs>
<g fill="none" stroke="black" stroke-width="1" fill-rule="evenodd" stroke-linecap="square" stroke-linejoin="bevel" >

<g fill="none" stroke="#000000" stroke-opacity="1" stroke-width="1" stroke-linecap="square" stroke-linejoin="bevel" transform="matrix(1,0,0,1,0,0)"
font-family="Ubuntu" font-size="11" font-weight="400" font-style="normal" 
>
</g>

<g fill="none" stroke="#000000" stroke-opacity="1" stroke-width="1" stroke-linecap="square" stroke-linejoin="bevel" transform="matrix(1,0,0,1,0,0)"
font-family="Ubuntu" font-size="11" font-weight="400" font-style="normal" 
>
</g>

<g fill="none" stroke="#000000" stroke-opacity="1" stroke-width="1" stroke-linecap="square" stroke-linejoin="bevel" transform="matrix(1.99937,0,0,1.99937,0.000799749,179.943)"
font-family="Ubuntu" font-size="11" font-weight="400" font-style="normal" 
>
</g>

<g fill="#ffffff" fill-opacity="1" stroke="none" transform="matrix(1.99937,0,0,1.99937,0.000799749,179.943)"
font-family="Ubuntu" font-size="11" font-weight="400" font-style="normal" 
>
<rect x="-0.0004" y="-90" width="256.08" height="90"/>
</g>

<g fill="none" stroke="#000000" stroke-opacity="1" stroke-width="1" stroke-linecap="square" stroke-linejoin="bevel" transform="matrix(1.99937,0,0,1.99937,0.000799749,179.943)"
font-family="Ubuntu" font-size="11" font-weight="400" font-style="normal" 
>
</g>

<g fill="none" stroke="#000000" stroke-opacity="1" stroke-width="1" stroke-linecap="square" stroke-linejoin="bevel" transform="matrix(1.99937,0,0,1.99937,0.000799749,179.943)"
font-family="Ubuntu" font-size="11" font-weight="400" font-style="normal" 
>
</g>

<g fill="none" stroke="#000000" stroke-opacity="1" stroke-width="1" stroke-linecap="square" stroke-linejoin="bevel" transform="matrix(1.99937,0,0,1.99937,0.000799749,179.943)"
font-family="Ubuntu" font-size="11" font-weight="400" font-style="normal" 
>
</g>

<g fill="none" stroke="#000000" stroke-opacity="1" stroke-width="1" stroke-linecap="square" stroke-linejoin="bevel" transform="matrix(1.99937,0,0,1.99937,0.000799749,179.943)"
font-family="Ubuntu" font-size="11" font-weight="400" font-style="normal" 
>
</g>

<g fill="none" stroke="#000000" stroke-opacity="1" stroke-width="1" stroke-linecap="square" stroke-linejoin="round" transform="matrix(1.99937,0,0,1.99937,0.000799749,179.943)"
font-family="Ubuntu" font-size="11" font-weight="400" font-style="normal" 
>
<rect x="192.58" y="-35.5" width="63.0001" height="35"/>
</g>

<g fill="none" stroke="#000000" stroke-opacity="1" stroke-width="1" stroke-linecap="square" stroke-linejoin="bevel" transform="matrix(1.99937,0,0,1.99937,0.000799749,179.943)"
font-family="Ubuntu" font-size="11" font-weight="400" font-style="normal" 
>
</g>

<g fill="none" stroke="#000000" stroke-opacity="1" stroke-width="1" stroke-linecap="square" stroke-linejoin="bevel" transform="matrix(1.99937,0,0,1.99937,400.488,130.959)"
font-family="Ubuntu" font-size="11" font-weight="400" font-style="normal" 
>
</g>

<g fill="none" stroke="#000000" stroke-opacity="1" stroke-width="1" stroke-linecap="square" stroke-linejoin="bevel" transform="matrix(1.99937,0,0,1.99937,400.488,130.959)"
font-family="sans" font-size="11" font-weight="100" font-style="normal" 
>
</g>

<g fill="#000000" fill-opacity="1" stroke="#000000" stroke-opacity="1" stroke-width="1" stroke-linecap="square" stroke-linejoin="round" transform="matrix(1.99937,0,0,1.99937,400.488,130.959)"
font-family="sans" font-size="11" font-weight="100" font-style="normal" 
>
<path vector-effect="none" fill-rule="nonzero" d="M2.96875,1.98438 L3.53125,1.98438 L0.734375,11.0156 L0.171875,11.0156 L2.96875,1.98438 M5.46875,2.28125 L5.46875,3.98438 L7.5,3.98438 L7.5,4.40625 L5.46875,4.40625 L5.46875,8.01562 C5.46875,8.47396 5.52604,8.79688 5.64062,8.98438 C5.89062,9.38021 6.25,9.57812 6.71875,9.57812 L7.5,9.57812 L7.5,10 L6.73438,10 C6.24479,10 5.82812,9.85677 5.48438,9.57031 C5.14062,9.28385 4.96875,8.76562 4.96875,8.01562 L4.96875,4.40625 L4.25,4.40625 L4.25,3.98438 L4.96875,3.98438 L4.96875,2.28125 L5.46875,2.28125 M11.8438,1.64062 L11.8438,2.0625 L11.1562,2.0625 C10.7917,2.0625 10.5104,2.15625 10.3125,2.34375 C10.0729,2.57292 9.95312,2.94271 9.95312,3.45312 L9.95312,3.98438 L11.5781,3.98438 L11.5781,4.40625 L9.95312,4.40625 L9.95312,10 L9.45312,10 L9.45312,4.40625 L8.51562,4.40625 L8.51562,3.98438 L9.45312,3.98438 L9.45312,3.5625 C9.45312,2.89583 9.60938,2.41146 9.92188,2.10938 C10.224,1.79688 10.6354,1.64062 11.1562,1.64062 L11.8438,1.64062 M17.4844,12.1719 L17.4844,12.5938 L11.7656,12.5938 L11.7656,12.1719 L17.4844,12.1719 M22.0312,4.15625 L22.0312,4.70312 C21.6771,4.50521 21.4583,4.39583 21.375,4.375 C21.125,4.32292 20.8125,4.29167 20.4375,4.28125 C19.875,4.28125 19.4323,4.39062 19.1094,4.60938 C18.8594,4.79688 18.7344,5.11458 18.7344,5.5625 C18.7344,5.875 18.8542,6.11458 19.0938,6.28125 C19.3333,6.46875 19.6823,6.61458 20.1406,6.71875 L20.4844,6.78125 C21.0573,6.90625 21.4896,7.08333 21.7812,7.3125 C22.125,7.58333 22.3021,7.92708 22.3125,8.34375 C22.3125,8.90625 22.1458,9.34896 21.8125,9.67188 C21.4583,9.99479 20.8802,10.1562 20.0781,10.1562 C19.6406,10.1562 19.3073,10.125 19.0781,10.0625 C18.7969,9.98958 18.5052,9.89583 18.2031,9.78125 L18.2031,9.15625 C18.6406,9.40625 18.9219,9.55208 19.0469,9.59375 C19.401,9.6875 19.7552,9.73438 20.1094,9.73438 C20.6823,9.73438 21.1094,9.61458 21.3906,9.375 C21.6719,9.125 21.8125,8.80729 21.8125,8.42188 C21.8125,8.08854 21.7188,7.84896 21.5312,7.70312 C21.2604,7.48438 20.8333,7.30729 20.25,7.17188 L19.9062,7.09375 C19.3958,6.96875 19.0104,6.80208 18.75,6.59375 C18.4167,6.32292 18.25,5.99479 18.25,5.60938 C18.25,4.98438 18.4505,4.53385 18.8516,4.25781 C19.2526,3.98177 19.7448,3.84375 20.3281,3.84375 C20.8281,3.84375 21.1719,3.86979 21.3594,3.92188 C21.5885,3.98438 21.8125,4.0625 22.0312,4.15625 M24.8594,2.28125 L24.8594,3.98438 L26.8906,3.98438 L26.8906,4.40625 L24.8594,4.40625 L24.8594,8.01562 C24.8594,8.47396 24.9167,8.79688 25.0312,8.98438 C25.2812,9.38021 25.6406,9.57812 26.1094,9.57812 L26.8906,9.57812 L26.8906,10 L26.125,10 C25.6354,10 25.2188,9.85677 24.875,9.57031 C24.5312,9.28385 24.3594,8.76562 24.3594,8.01562 L24.3594,4.40625 L23.6406,4.40625 L23.6406,3.98438 L24.3594,3.98438 L24.3594,2.28125 L24.8594,2.28125 M31.0625,6.60938 C30.2604,6.60938 29.6849,6.75 29.3359,7.03125 C28.987,7.3125 28.8125,7.72396 28.8125,8.26562 C28.8125,8.79688 28.9583,9.17448 29.25,9.39844 C29.5417,9.6224 29.8854,9.73438 30.2812,9.73438 C31.0312,9.73438 31.5729,9.41667 31.9062,8.78125 C32.2396,8.13542 32.4062,7.53125 32.4062,6.96875 L32.4062,6.60938 L31.0625,6.60938 M32.9062,6.5625 L32.9062,10 L32.4062,10 L32.4062,8.35938 C32.1354,9.16146 31.7708,9.67188 31.3125,9.89062 C30.9583,10.0677 30.599,10.1562 30.2344,10.1562 C29.6406,10.1562 29.1719,9.99479 28.8281,9.67188 C28.4844,9.34896 28.3125,8.8776 28.3125,8.25781 C28.3125,7.63802 28.5365,7.14062 28.9844,6.76562 C29.4323,6.39062 30.1615,6.20312 31.1719,6.20312 L32.4062,6.20312 L32.4062,6.10938 C32.4062,5.57812 32.25,5.14062 31.9375,4.79688 C31.6458,4.45312 31.151,4.28125 30.4531,4.28125 C30.1094,4.28125 29.7604,4.34375 29.4062,4.46875 C29.1771,4.55208 28.875,4.71875 28.5,4.96875 L28.5,4.4375 C28.8229,4.23958 29.125,4.09896 29.4062,4.01562 C29.8021,3.90104 30.1823,3.84375 30.5469,3.84375 C31.2656,3.84375 31.8542,4.05729 32.3125,4.48438 C32.7083,4.84896 32.9062,5.54167 32.9062,6.5625 M35.9062,2.28125 L35.9062,3.98438 L37.9375,3.98438 L37.9375,4.40625 L35.9062,4.40625 L35.9062,8.01562 C35.9062,8.47396 35.9635,8.79688 36.0781,8.98438 C36.3281,9.38021 36.6875,9.57812 37.1562,9.57812 L37.9375,9.57812 L37.9375,10 L37.1719,10 C36.6823,10 36.2656,9.85677 35.9219,9.57031 C35.5781,9.28385 35.4062,8.76562 35.4062,8.01562 L35.4062,4.40625 L34.6875,4.40625 L34.6875,3.98438 L35.4062,3.98438 L35.4062,2.28125 L35.9062,2.28125 M39.6875,3.98438 L40.1875,3.98438 L40.1875,10 L39.6875,10 L39.6875,3.98438 M39.6875,1.64062 L40.1875,1.64062 L40.1875,2.3125 L39.6875,2.3125 L39.6875,1.64062 M46.8594,4.28125 L46.8594,4.79688 C46.5677,4.61979 46.3229,4.5 46.125,4.4375 C45.7917,4.33333 45.474,4.28125 45.1719,4.28125 C44.3073,4.28125 43.6875,4.5026 43.3125,4.94531 C42.9375,5.38802 42.75,6.07292 42.75,7 C42.75,7.9375 42.9375,8.6276 43.3125,9.07031 C43.6875,9.51302 44.3073,9.73438 45.1719,9.73438 C45.4635,9.73438 45.7448,9.69271 46.0156,9.60938 C46.3073,9.53646 46.5885,9.42188 46.8594,9.26562 L46.8594,9.76562 C46.5885,9.90104 46.3073,10 46.0156,10.0625 C45.7135,10.125 45.4167,10.1562 45.125,10.1562 C44.25,10.1562 43.5521,9.91667 43.0312,9.4375 C42.5104,8.95833 42.25,8.14323 42.25,6.99219 C42.25,5.84115 42.5104,5.02604 43.0312,4.54688 C43.5521,4.07812 44.25,3.84375 45.125,3.84375 C45.4167,3.84375 45.724,3.88542 46.0469,3.96875 C46.3698,4.04167 46.6406,4.14583 46.8594,4.28125 "/>
</g>

<g fill="none" stroke="#000000" stroke-opacity="1" stroke-width="1" stroke-linecap="square" stroke-linejoin="bevel" transform="matrix(1.99937,0,0,1.99937,400.488,130.959)"
font-family="sans" font-size="11" font-weight="100" font-style="normal" 
>
</g>

<g fill="none" stroke="#000000" stroke-opacity="1" stroke-width="1" stroke-linecap="square" stroke-linejoin="bevel" transform="matrix(1.99937,0,0,1.99937,400.488,130.959)"
font-family="Ubuntu" font-size="11" font-weight="400" font-style="normal" 
>
</g>

<g fill="none" stroke="#000000" stroke-opacity="1" stroke-width="1" stroke-linecap="square" stroke-linejoin="bevel" transform="matrix(1.99937,0,0,1.99937,0.000799749,179.943)"
font-family="Ubuntu" font-size="11" font-weight="400" font-style="normal" 
>
</g>

<g fill="none" stroke="#000000" stroke-opacity="1" stroke-width="1" stroke-linecap="square" stroke-linejoin="bevel" transform="matrix(1.99937,0,0,1.99937,0.000799749,179.943)"
font-family="Ubuntu" font-size="11" font-weight="400" font-style="normal" 
>
</g>

<g fill="none" stroke="#000000" stroke-opacity="1" stroke-width="1" stroke-linecap="square" stroke-linejoin="bevel" transform="matrix(1.99937,0,0,1.99937,0.000799749,179.943)"
font-family="Ubuntu" font-size="11" font-weight="400" font-style="normal" 
>
</g>

<g fill="none" stroke="#000000" stroke-opacity="1" stroke-width="1" stroke-linecap="square" stroke-linejoin="round" transform="matrix(1.99937,0,0,1.99937,0.000799749,179.943)"
font-family="Ubuntu" font-size="11" font-weight="400" font-style="normal" 
>
<ellipse cx="89.042" cy="-45" rx="88.5424" ry="17.5"/>
</g>

<g fill="none" stroke="#000000" stroke-opacity="1" stroke-width="1" stroke-linecap="square" stroke-linejoin="bevel" transform="matrix(1.99937,0,0,1.99937,0.000799749,179.943)"
font-family="Ubuntu" font-size="11" font-weight="400" font-style="normal" 
>
</g>

<g fill="none" stroke="#000000" stroke-opacity="1" stroke-width="1" stroke-linecap="square" stroke-linejoin="bevel" transform="matrix(1.99937,0,0,1.99937,55.3174,76.9758)"
font-family="Ubuntu" font-size="11" font-weight="400" font-style="normal" 
>
</g>

<g fill="none" stroke="#000000" stroke-opacity="1" stroke-width="1" stroke-linecap="square" stroke-linejoin="bevel" transform="matrix(1.99937,0,0,1.99937,55.3174,76.9758)"
font-family="sans" font-size="11" font-weight="100" font-style="normal" 
>
</g>

<g fill="#000000" fill-opacity="1" stroke="#000000" stroke-opacity="1" stroke-width="1" stroke-linecap="square" stroke-linejoin="round" transform="matrix(1.99937,0,0,1.99937,55.3174,76.9758)"
font-family="sans" font-size="11" font-weight="100" font-style="normal" 
>
<path vector-effect="none" fill-rule="nonzero" d="M2.96875,1.98438 L3.53125,1.98438 L0.734375,11.0156 L0.171875,11.0156 L2.96875,1.98438 M8.21875,4.40625 C8.13542,4.36458 8.02604,4.33333 7.89062,4.3125 C7.76562,4.29167 7.61458,4.28125 7.4375,4.28125 C6.82292,4.28125 6.31771,4.50521 5.92188,4.95312 C5.59896,5.31771 5.4375,5.94271 5.4375,6.82812 L5.4375,10 L4.95312,10 L4.95312,3.98438 L5.4375,3.98438 L5.4375,5.10938 C5.60417,4.78646 5.83333,4.51562 6.125,4.29688 C6.52083,3.99479 6.98958,3.84375 7.53125,3.84375 C7.67708,3.84375 7.80208,3.84896 7.90625,3.85938 C8.01042,3.85938 8.11458,3.86979 8.21875,3.89062 L8.21875,4.40625 M13.0469,5.01562 C12.6927,4.52604 12.2083,4.28125 11.5938,4.28125 C10.9792,4.28125 10.4948,4.52604 10.1406,5.01562 C9.78646,5.49479 9.60938,6.15104 9.60938,6.98438 C9.60938,7.83854 9.78646,8.51042 10.1406,9 C10.4948,9.48958 10.9792,9.73438 11.5938,9.73438 C12.2083,9.73438 12.6927,9.48958 13.0469,9 C13.401,8.5 13.5781,7.82812 13.5781,6.98438 C13.5781,6.16146 13.401,5.50521 13.0469,5.01562 M11.5938,3.84375 C12.3542,3.84375 12.9583,4.13021 13.4062,4.70312 C13.8542,5.27604 14.0781,6.03646 14.0781,6.98438 C14.0781,7.97396 13.8542,8.75521 13.4062,9.32812 C12.9583,9.90104 12.3542,10.1875 11.5938,10.1875 C10.8125,10.1875 10.1979,9.90104 9.75,9.32812 C9.3125,8.75521 9.09375,7.97396 9.09375,6.98438 C9.09375,6.02604 9.31771,5.26302 9.76562,4.69531 C10.2135,4.1276 10.8229,3.84375 11.5938,3.84375 M19.9062,9.09375 C20.3229,8.67708 20.5312,7.97917 20.5312,7 C20.5312,6.02083 20.3229,5.32292 19.9062,4.90625 C19.4896,4.48958 19.0521,4.28125 18.5938,4.28125 C18.1458,4.28125 17.7135,4.48958 17.2969,4.90625 C16.8906,5.32292 16.6875,6.02083 16.6875,7 C16.6875,7.97917 16.8906,8.67708 17.2969,9.09375 C17.7135,9.51042 18.1458,9.71875 18.5938,9.71875 C19.0521,9.71875 19.4896,9.51042 19.9062,9.09375 M16.6719,5.35938 C16.901,4.83854 17.1458,4.47917 17.4062,4.28125 C17.8125,3.98958 18.1979,3.84375 18.5625,3.84375 C19.2708,3.84375 19.862,4.13281 20.3359,4.71094 C20.8099,5.28906 21.0469,6.05208 21.0469,7 C21.0469,7.94792 20.8099,8.71094 20.3359,9.28906 C19.862,9.86719 19.2708,10.1562 18.5625,10.1562 C18.1979,10.1562 17.8125,10.0052 17.4062,9.70312 C17.1458,9.51562 16.901,9.16146 16.6719,8.64062 L16.6719,10 L16.1875,10 L16.1875,1.64062 L16.6719,1.64062 L16.6719,5.35938 M26.7344,5.01562 C26.3802,4.52604 25.8958,4.28125 25.2812,4.28125 C24.6667,4.28125 24.1823,4.52604 23.8281,5.01562 C23.474,5.49479 23.2969,6.15104 23.2969,6.98438 C23.2969,7.83854 23.474,8.51042 23.8281,9 C24.1823,9.48958 24.6667,9.73438 25.2812,9.73438 C25.8958,9.73438 26.3802,9.48958 26.7344,9 C27.0885,8.5 27.2656,7.82812 27.2656,6.98438 C27.2656,6.16146 27.0885,5.50521 26.7344,5.01562 M25.2812,3.84375 C26.0417,3.84375 26.6458,4.13021 27.0938,4.70312 C27.5417,5.27604 27.7656,6.03646 27.7656,6.98438 C27.7656,7.97396 27.5417,8.75521 27.0938,9.32812 C26.6458,9.90104 26.0417,10.1875 25.2812,10.1875 C24.5,10.1875 23.8854,9.90104 23.4375,9.32812 C23,8.75521 22.7812,7.97396 22.7812,6.98438 C22.7812,6.02604 23.0052,5.26302 23.4531,4.69531 C23.901,4.1276 24.5104,3.84375 25.2812,3.84375 M30.3906,2.28125 L30.3906,3.98438 L32.4219,3.98438 L32.4219,4.40625 L30.3906,4.40625 L30.3906,8.01562 C30.3906,8.47396 30.4479,8.79688 30.5625,8.98438 C30.8125,9.38021 31.1719,9.57812 31.6406,9.57812 L32.4219,9.57812 L32.4219,10 L31.6562,10 C31.1667,10 30.75,9.85677 30.4062,9.57031 C30.0625,9.28385 29.8906,8.76562 29.8906,8.01562 L29.8906,4.40625 L29.1719,4.40625 L29.1719,3.98438 L29.8906,3.98438 L29.8906,2.28125 L30.3906,2.28125 M38.5469,12.1719 L38.5469,12.5938 L32.8281,12.5938 L32.8281,12.1719 L38.5469,12.1719 M43.0938,4.15625 L43.0938,4.70312 C42.7396,4.50521 42.5208,4.39583 42.4375,4.375 C42.1875,4.32292 41.875,4.29167 41.5,4.28125 C40.9375,4.28125 40.4948,4.39062 40.1719,4.60938 C39.9219,4.79688 39.7969,5.11458 39.7969,5.5625 C39.7969,5.875 39.9167,6.11458 40.1562,6.28125 C40.3958,6.46875 40.7448,6.61458 41.2031,6.71875 L41.5469,6.78125 C42.1198,6.90625 42.5521,7.08333 42.8438,7.3125 C43.1875,7.58333 43.3646,7.92708 43.375,8.34375 C43.375,8.90625 43.2083,9.34896 42.875,9.67188 C42.5208,9.99479 41.9427,10.1562 41.1406,10.1562 C40.7031,10.1562 40.3698,10.125 40.1406,10.0625 C39.8594,9.98958 39.5677,9.89583 39.2656,9.78125 L39.2656,9.15625 C39.7031,9.40625 39.9844,9.55208 40.1094,9.59375 C40.4635,9.6875 40.8177,9.73438 41.1719,9.73438 C41.7448,9.73438 42.1719,9.61458 42.4531,9.375 C42.7344,9.125 42.875,8.80729 42.875,8.42188 C42.875,8.08854 42.7812,7.84896 42.5938,7.70312 C42.3229,7.48438 41.8958,7.30729 41.3125,7.17188 L40.9688,7.09375 C40.4583,6.96875 40.0729,6.80208 39.8125,6.59375 C39.4792,6.32292 39.3125,5.99479 39.3125,5.60938 C39.3125,4.98438 39.513,4.53385 39.9141,4.25781 C40.3151,3.98177 40.8073,3.84375 41.3906,3.84375 C41.8906,3.84375 42.2344,3.86979 42.4219,3.92188 C42.651,3.98438 42.875,4.0625 43.0938,4.15625 M45.9219,2.28125 L45.9219,3.98438 L47.9531,3.98438 L47.9531,4.40625 L45.9219,4.40625 L45.9219,8.01562 C45.9219,8.47396 45.9792,8.79688 46.0938,8.98438 C46.3438,9.38021 46.7031,9.57812 47.1719,9.57812 L47.9531,9.57812 L47.9531,10 L47.1875,10 C46.6979,10 46.2812,9.85677 45.9375,9.57031 C45.5938,9.28385 45.4219,8.76562 45.4219,8.01562 L45.4219,4.40625 L44.7031,4.40625 L44.7031,3.98438 L45.4219,3.98438 L45.4219,2.28125 L45.9219,2.28125 M52.125,6.60938 C51.3229,6.60938 50.7474,6.75 50.3984,7.03125 C50.0495,7.3125 49.875,7.72396 49.875,8.26562 C49.875,8.79688 50.0208,9.17448 50.3125,9.39844 C50.6042,9.6224 50.9479,9.73438 51.3438,9.73438 C52.0938,9.73438 52.6354,9.41667 52.9688,8.78125 C53.3021,8.13542 53.4688,7.53125 53.4688,6.96875 L53.4688,6.60938 L52.125,6.60938 M53.9688,6.5625 L53.9688,10 L53.4688,10 L53.4688,8.35938 C53.1979,9.16146 52.8333,9.67188 52.375,9.89062 C52.0208,10.0677 51.6615,10.1562 51.2969,10.1562 C50.7031,10.1562 50.2344,9.99479 49.8906,9.67188 C49.5469,9.34896 49.375,8.8776 49.375,8.25781 C49.375,7.63802 49.599,7.14062 50.0469,6.76562 C50.4948,6.39062 51.224,6.20312 52.2344,6.20312 L53.4688,6.20312 L53.4688,6.10938 C53.4688,5.57812 53.3125,5.14062 53,4.79688 C52.7083,4.45312 52.2135,4.28125 51.5156,4.28125 C51.1719,4.28125 50.8229,4.34375 50.4688,4.46875 C50.2396,4.55208 49.9375,4.71875 49.5625,4.96875 L49.5625,4.4375 C49.8854,4.23958 50.1875,4.09896 50.4688,4.01562 C50.8646,3.90104 51.2448,3.84375 51.6094,3.84375 C52.3281,3.84375 52.9167,4.05729 53.375,4.48438 C53.7708,4.84896 53.9688,5.54167 53.9688,6.5625 M56.9688,2.28125 L56.9688,3.98438 L59,3.98438 L59,4.40625 L56.9688,4.40625 L56.9688,8.01562 C56.9688,8.47396 57.026,8.79688 57.1406,8.98438 C57.3906,9.38021 57.75,9.57812 58.2188,9.57812 L59,9.57812 L59,10 L58.2344,10 C57.7448,10 57.3281,9.85677 56.9844,9.57031 C56.6406,9.28385 56.4688,8.76562 56.4688,8.01562 L56.4688,4.40625 L55.75,4.40625 L55.75,3.98438 L56.4688,3.98438 L56.4688,2.28125 L56.9688,2.28125 M65.4531,6.75 L65.4531,7.0625 L60.8906,7.0625 C60.8906,8.02083 61.0781,8.69792 61.4531,9.09375 C61.8698,9.52083 62.4844,9.73438 63.2969,9.73438 C63.5156,9.73438 63.8021,9.6875 64.1562,9.59375 C64.5104,9.5 64.8646,9.35938 65.2188,9.17188 L65.2188,9.6875 C64.8646,9.84375 64.5026,9.96094 64.1328,10.0391 C63.763,10.1172 63.4688,10.1562 63.25,10.1562 C62.3229,10.1562 61.625,9.90625 61.1562,9.40625 C60.6458,8.875 60.3906,8.09375 60.3906,7.0625 C60.3906,5.98958 60.6198,5.1875 61.0781,4.65625 C61.5573,4.11458 62.224,3.84375 63.0781,3.84375 C63.8594,3.84375 64.4531,4.10417 64.8594,4.625 C65.2552,5.16667 65.4531,5.875 65.4531,6.75 M64.9531,6.64062 C64.9531,5.79688 64.7604,5.18229 64.375,4.79688 C64.0625,4.45312 63.6302,4.28125 63.0781,4.28125 C62.4844,4.28125 61.9844,4.45833 61.5781,4.8125 C61.2031,5.14583 60.9792,5.75521 60.9062,6.64062 L64.9531,6.64062 M71.8906,12.1719 L71.8906,12.5938 L66.1719,12.5938 L66.1719,12.1719 L71.8906,12.1719 M73.5156,8.64062 L73.5156,12.2812 L73.0312,12.2812 L73.0312,3.98438 L73.5156,3.98438 L73.5156,5.35938 C73.7448,4.83854 73.9896,4.47917 74.25,4.28125 C74.6562,3.98958 75.0417,3.84375 75.4062,3.84375 C76.1146,3.84375 76.7057,4.13281 77.1797,4.71094 C77.6536,5.28906 77.8906,6.05208 77.8906,7 C77.8906,7.94792 77.6536,8.71094 77.1797,9.28906 C76.7057,9.86719 76.1146,10.1562 75.4062,10.1562 C75.0417,10.1562 74.6562,10.0052 74.25,9.70312 C73.9896,9.51562 73.7448,9.16146 73.5156,8.64062 M76.75,9.09375 C77.1667,8.67708 77.375,7.97917 77.375,7 C77.375,6.02083 77.1667,5.32292 76.75,4.90625 C76.3333,4.48958 75.8958,4.28125 75.4375,4.28125 C74.9896,4.28125 74.5573,4.48958 74.1406,4.90625 C73.7344,5.32292 73.5312,6.02083 73.5312,7 C73.5312,7.97917 73.7344,8.67708 74.1406,9.09375 C74.5573,9.51042 74.9896,9.71875 75.4375,9.71875 C75.8958,9.71875 76.3333,9.51042 76.75,9.09375 M79.9375,7.60938 L79.9375,3.98438 L80.4219,3.98438 L80.4219,7.57812 C80.4219,8.35938 80.5469,8.90885 80.7969,9.22656 C81.0469,9.54427 81.4167,9.70312 81.9062,9.70312 C82.4792,9.70312 82.9688,9.53125 83.375,9.1875 C83.7812,8.84375 83.9844,8.24479 83.9844,7.39062 L83.9844,3.98438 L84.4688,3.98438 L84.4688,10 L83.9844,10 L83.9844,8.875 C83.8073,9.23958 83.5729,9.51562 83.2812,9.70312 C82.8646,9.99479 82.401,10.1406 81.8906,10.1406 C81.2969,10.1406 80.8229,9.9375 80.4688,9.53125 C80.1146,9.13542 79.9375,8.49479 79.9375,7.60938 M90.6875,9.09375 C91.1042,8.67708 91.3125,7.97917 91.3125,7 C91.3125,6.02083 91.1042,5.32292 90.6875,4.90625 C90.2708,4.48958 89.8333,4.28125 89.375,4.28125 C88.9271,4.28125 88.4948,4.48958 88.0781,4.90625 C87.6719,5.32292 87.4688,6.02083 87.4688,7 C87.4688,7.97917 87.6719,8.67708 88.0781,9.09375 C88.4948,9.51042 88.9271,9.71875 89.375,9.71875 C89.8333,9.71875 90.2708,9.51042 90.6875,9.09375 M87.4531,5.35938 C87.6823,4.83854 87.9271,4.47917 88.1875,4.28125 C88.5938,3.98958 88.9792,3.84375 89.3438,3.84375 C90.0521,3.84375 90.6432,4.13281 91.1172,4.71094 C91.5911,5.28906 91.8281,6.05208 91.8281,7 C91.8281,7.94792 91.5911,8.71094 91.1172,9.28906 C90.6432,9.86719 90.0521,10.1562 89.3438,10.1562 C88.9792,10.1562 88.5938,10.0052 88.1875,9.70312 C87.9271,9.51562 87.6823,9.16146 87.4531,8.64062 L87.4531,10 L86.9688,10 L86.9688,1.64062 L87.4531,1.64062 L87.4531,5.35938 M93.9375,1.64062 L94.4219,1.64062 L94.4219,10 L93.9375,10 L93.9375,1.64062 M96.9688,3.98438 L97.4688,3.98438 L97.4688,10 L96.9688,10 L96.9688,3.98438 M96.9688,1.64062 L97.4688,1.64062 L97.4688,2.3125 L96.9688,2.3125 L96.9688,1.64062 M103.438,4.15625 L103.438,4.70312 C103.083,4.50521 102.865,4.39583 102.781,4.375 C102.531,4.32292 102.219,4.29167 101.844,4.28125 C101.281,4.28125 100.839,4.39062 100.516,4.60938 C100.266,4.79688 100.141,5.11458 100.141,5.5625 C100.141,5.875 100.26,6.11458 100.5,6.28125 C100.74,6.46875 101.089,6.61458 101.547,6.71875 L101.891,6.78125 C102.464,6.90625 102.896,7.08333 103.188,7.3125 C103.531,7.58333 103.708,7.92708 103.719,8.34375 C103.719,8.90625 103.552,9.34896 103.219,9.67188 C102.865,9.99479 102.286,10.1562 101.484,10.1562 C101.047,10.1562 100.714,10.125 100.484,10.0625 C100.203,9.98958 99.9115,9.89583 99.6094,9.78125 L99.6094,9.15625 C100.047,9.40625 100.328,9.55208 100.453,9.59375 C100.807,9.6875 101.161,9.73438 101.516,9.73438 C102.089,9.73438 102.516,9.61458 102.797,9.375 C103.078,9.125 103.219,8.80729 103.219,8.42188 C103.219,8.08854 103.125,7.84896 102.938,7.70312 C102.667,7.48438 102.24,7.30729 101.656,7.17188 L101.312,7.09375 C100.802,6.96875 100.417,6.80208 100.156,6.59375 C99.8229,6.32292 99.6562,5.99479 99.6562,5.60938 C99.6562,4.98438 99.8568,4.53385 100.258,4.25781 C100.659,3.98177 101.151,3.84375 101.734,3.84375 C102.234,3.84375 102.578,3.86979 102.766,3.92188 C102.995,3.98438 103.219,4.0625 103.438,4.15625 M110.297,6.375 L110.297,10 L109.797,10 L109.797,6.40625 C109.797,5.625 109.667,5.07552 109.406,4.75781 C109.146,4.4401 108.75,4.28125 108.219,4.28125 C107.604,4.28125 107.12,4.45833 106.766,4.8125 C106.411,5.16667 106.234,5.76042 106.234,6.59375 L106.234,10 L105.75,10 L105.75,1.64062 L106.234,1.64062 L106.234,5.09375 C106.349,4.79167 106.557,4.52083 106.859,4.28125 C107.203,3.98958 107.693,3.84375 108.328,3.84375 C108.932,3.84375 109.411,4.05729 109.766,4.48438 C110.12,4.91146 110.297,5.54167 110.297,6.375 M117.406,6.75 L117.406,7.0625 L112.844,7.0625 C112.844,8.02083 113.031,8.69792 113.406,9.09375 C113.823,9.52083 114.438,9.73438 115.25,9.73438 C115.469,9.73438 115.755,9.6875 116.109,9.59375 C116.464,9.5 116.818,9.35938 117.172,9.17188 L117.172,9.6875 C116.818,9.84375 116.456,9.96094 116.086,10.0391 C115.716,10.1172 115.422,10.1562 115.203,10.1562 C114.276,10.1562 113.578,9.90625 113.109,9.40625 C112.599,8.875 112.344,8.09375 112.344,7.0625 C112.344,5.98958 112.573,5.1875 113.031,4.65625 C113.51,4.11458 114.177,3.84375 115.031,3.84375 C115.812,3.84375 116.406,4.10417 116.812,4.625 C117.208,5.16667 117.406,5.875 117.406,6.75 M116.906,6.64062 C116.906,5.79688 116.714,5.18229 116.328,4.79688 C116.016,4.45312 115.583,4.28125 115.031,4.28125 C114.438,4.28125 113.938,4.45833 113.531,4.8125 C113.156,5.14583 112.932,5.75521 112.859,6.64062 L116.906,6.64062 M122.75,4.40625 C122.667,4.36458 122.557,4.33333 122.422,4.3125 C122.297,4.29167 122.146,4.28125 121.969,4.28125 C121.354,4.28125 120.849,4.50521 120.453,4.95312 C120.13,5.31771 119.969,5.94271 119.969,6.82812 L119.969,10 L119.484,10 L119.484,3.98438 L119.969,3.98438 L119.969,5.10938 C120.135,4.78646 120.365,4.51562 120.656,4.29688 C121.052,3.99479 121.521,3.84375 122.062,3.84375 C122.208,3.84375 122.333,3.84896 122.438,3.85938 C122.542,3.85938 122.646,3.86979 122.75,3.89062 L122.75,4.40625"/>
</g>

<g fill="none" stroke="#000000" stroke-opacity="1" stroke-width="1" stroke-linecap="square" stroke-linejoin="bevel" transform="matrix(1.99937,0,0,1.99937,55.3174,76.9758)"
font-family="sans" font-size="11" font-weight="100" font-style="normal" 
>
</g>

<g fill="none" stroke="#000000" stroke-opacity="1" stroke-width="1" stroke-linecap="square" stroke-linejoin="bevel" transform="matrix(1.99937,0,0,1.99937,55.3174,76.9758)"
font-family="Ubuntu" font-size="11" font-weight="400" font-style="normal" 
>
</g>

<g fill="none" stroke="#000000" stroke-opacity="1" stroke-width="1" stroke-linecap="square" stroke-linejoin="bevel" transform="matrix(1.99937,0,0,1.99937,0.000799749,179.943)"
font-family="Ubuntu" font-size="11" font-weight="400" font-style="normal" 
>
</g>

<g fill="none" stroke="#000000" stroke-opacity="1" stroke-width="1" stroke-linecap="square" stroke-linejoin="bevel" transform="matrix(1.99937,0,0,1.99937,0.000799749,179.943)"
font-family="Ubuntu" font-size="11" font-weight="400" font-style="normal" 
>
</g>

<g fill="none" stroke="#000000" stroke-opacity="1" stroke-width="1" stroke-linecap="square" stroke-linejoin="bevel" transform="matrix(1.99937,0,0,1.99937,0.000799749,179.943)"
font-family="Ubuntu" font-size="11" font-weight="400" font-style="normal" 
>
</g>

<g fill="none" stroke="#000000" stroke-opacity="1" stroke-width="1" stroke-linecap="square" stroke-linejoin="round" transform="matrix(1.99937,0,0,1.99937,0.000799749,179.943)"
font-family="Ubuntu" font-size="11" font-weight="400" font-style="normal" 
>
<rect x="197.58" y="-89.5" width="53" height="35"/>
</g>

<g fill="none" stroke="#000000" stroke-opacity="1" stroke-width="1" stroke-linecap="square" stroke-linejoin="bevel" transform="matrix(1.99937,0,0,1.99937,0.000799749,179.943)"
font-family="Ubuntu" font-size="11" font-weight="400" font-style="normal" 
>
</g>

<g fill="none" stroke="#000000" stroke-opacity="1" stroke-width="1" stroke-linecap="square" stroke-linejoin="bevel" transform="matrix(1.99937,0,0,1.99937,436.149,22.9928)"
font-family="Ubuntu" font-size="11" font-weight="400" font-style="normal" 
>
</g>

<g fill="none" stroke="#000000" stroke-opacity="1" stroke-width="1" stroke-linecap="square" stroke-linejoin="bevel" transform="matrix(1.99937,0,0,1.99937,436.149,22.9928)"
font-family="sans" font-size="11" font-weight="100" font-style="normal" 
>
</g>

<g fill="#000000" fill-opacity="1" stroke="#000000" stroke-opacity="1" stroke-width="1" stroke-linecap="square" stroke-linejoin="round" transform="matrix(1.99937,0,0,1.99937,436.149,22.9928)"
font-family="sans" font-size="11" font-weight="100" font-style="normal" 
>
<path vector-effect="none" fill-rule="nonzero" d="M2.96875,1.98438 L3.53125,1.98438 L0.734375,11.0156 L0.171875,11.0156 L2.96875,1.98438 M5.46875,2.28125 L5.46875,3.98438 L7.5,3.98438 L7.5,4.40625 L5.46875,4.40625 L5.46875,8.01562 C5.46875,8.47396 5.52604,8.79688 5.64062,8.98438 C5.89062,9.38021 6.25,9.57812 6.71875,9.57812 L7.5,9.57812 L7.5,10 L6.73438,10 C6.24479,10 5.82812,9.85677 5.48438,9.57031 C5.14062,9.28385 4.96875,8.76562 4.96875,8.01562 L4.96875,4.40625 L4.25,4.40625 L4.25,3.98438 L4.96875,3.98438 L4.96875,2.28125 L5.46875,2.28125 M11.8438,1.64062 L11.8438,2.0625 L11.1562,2.0625 C10.7917,2.0625 10.5104,2.15625 10.3125,2.34375 C10.0729,2.57292 9.95312,2.94271 9.95312,3.45312 L9.95312,3.98438 L11.5781,3.98438 L11.5781,4.40625 L9.95312,4.40625 L9.95312,10 L9.45312,10 L9.45312,4.40625 L8.51562,4.40625 L8.51562,3.98438 L9.45312,3.98438 L9.45312,3.5625 C9.45312,2.89583 9.60938,2.41146 9.92188,2.10938 C10.224,1.79688 10.6354,1.64062 11.1562,1.64062 L11.8438,1.64062"/>
</g>

<g fill="none" stroke="#000000" stroke-opacity="1" stroke-width="1" stroke-linecap="square" stroke-linejoin="bevel" transform="matrix(1.99937,0,0,1.99937,436.149,22.9928)"
font-family="sans" font-size="11" font-weight="100" font-style="normal" 
>
</g>

<g fill="none" stroke="#000000" stroke-opacity="1" stroke-width="1" stroke-linecap="square" stroke-linejoin="bevel" transform="matrix(1.99937,0,0,1.99937,436.149,22.9928)"
font-family="Ubuntu" font-size="11" font-weight="400" font-style="normal" 
>
</g>

<g fill="none" stroke="#000000" stroke-opacity="1" stroke-width="1" stroke-linecap="square" stroke-linejoin="bevel" transform="matrix(1.99937,0,0,1.99937,0.000799749,179.943)"
font-family="Ubuntu" font-size="11" font-weight="400" font-style="normal" 
>
</g>

<g fill="none" stroke="#000000" stroke-opacity="1" stroke-width="1" stroke-linecap="square" stroke-linejoin="bevel" transform="matrix(1.99937,0,0,1.99937,0.000799749,179.943)"
font-family="Ubuntu" font-size="11" font-weight="400" font-style="normal" 
>
</g>

<g fill="none" stroke="#000000" stroke-opacity="1" stroke-width="1" stroke-linecap="square" stroke-linejoin="bevel" transform="matrix(1.99937,0,0,1.99937,0.000799749,179.943)"
font-family="Ubuntu" font-size="11" font-weight="400" font-style="normal" 
>
</g>

<g fill="none" stroke="#000000" stroke-opacity="1" stroke-width="1" stroke-linecap="square" stroke-linejoin="round" transform="matrix(1.99937,0,0,1.99937,0.000799749,179.943)"
font-family="Ubuntu" font-size="11" font-weight="400" font-style="normal" 
>
<path vector-effect="none" fill-rule="evenodd" d="M152.67,-57.709 C164.39,-60.089 176.28,-62.502 186.87,-64.651 "/>
</g>

<g fill="none" stroke="#000000" stroke-opacity="1" stroke-width="1" stroke-linecap="square" stroke-linejoin="bevel" transform="matrix(1.99937,0,0,1.99937,0.000799749,179.943)"
font-family="Ubuntu" font-size="11" font-weight="400" font-style="normal" 
>
</g>

<g fill="none" stroke="#000000" stroke-opacity="1" stroke-width="1" stroke-linecap="square" stroke-linejoin="bevel" transform="matrix(1.99937,0,0,1.99937,0.000799749,179.943)"
font-family="Ubuntu" font-size="11" font-weight="400" font-style="normal" 
>
</g>

<g fill="#000000" fill-opacity="1" stroke="#000000" stroke-opacity="1" stroke-width="1" stroke-linecap="square" stroke-linejoin="round" transform="matrix(1.99937,0,0,1.99937,0.000799749,179.943)"
font-family="Ubuntu" font-size="11" font-weight="400" font-style="normal" 
>
<path vector-effect="none" fill-rule="evenodd" d="M186.87,-64.651 L187.587,-61.116 L196.97,-66.7 L186.153,-68.186 L186.87,-64.651"/>
</g>

<g fill="none" stroke="#000000" stroke-opacity="1" stroke-width="1" stroke-linecap="square" stroke-linejoin="bevel" transform="matrix(1.99937,0,0,1.99937,0.000799749,179.943)"
font-family="Ubuntu" font-size="11" font-weight="400" font-style="normal" 
>
</g>

<g fill="none" stroke="#000000" stroke-opacity="1" stroke-width="1" stroke-linecap="square" stroke-linejoin="bevel" transform="matrix(1.99937,0,0,1.99937,0.000799749,179.943)"
font-family="Ubuntu" font-size="11" font-weight="400" font-style="normal" 
>
</g>

<g fill="none" stroke="#000000" stroke-opacity="1" stroke-width="1" stroke-linecap="square" stroke-linejoin="bevel" transform="matrix(1.99937,0,0,1.99937,0.000799749,179.943)"
font-family="Ubuntu" font-size="11" font-weight="400" font-style="normal" 
>
</g>

<g fill="none" stroke="#000000" stroke-opacity="1" stroke-width="1" stroke-linecap="square" stroke-linejoin="bevel" transform="matrix(1.99937,0,0,1.99937,0.000799749,179.943)"
font-family="Ubuntu" font-size="11" font-weight="400" font-style="normal" 
>
</g>

<g fill="none" stroke="#000000" stroke-opacity="1" stroke-width="1" stroke-linecap="square" stroke-linejoin="round" transform="matrix(1.99937,0,0,1.99937,0.000799749,179.943)"
font-family="Ubuntu" font-size="11" font-weight="400" font-style="normal" 
>
<path vector-effect="none" fill-rule="evenodd" d="M152.67,-32.291 C162.56,-30.283 172.57,-28.252 181.81,-26.377 "/>
</g>

<g fill="none" stroke="#000000" stroke-opacity="1" stroke-width="1" stroke-linecap="square" stroke-linejoin="bevel" transform="matrix(1.99937,0,0,1.99937,0.000799749,179.943)"
font-family="Ubuntu" font-size="11" font-weight="400" font-style="normal" 
>
</g>

<g fill="none" stroke="#000000" stroke-opacity="1" stroke-width="1" stroke-linecap="square" stroke-linejoin="bevel" transform="matrix(1.99937,0,0,1.99937,0.000799749,179.943)"
font-family="Ubuntu" font-size="11" font-weight="400" font-style="normal" 
>
</g>

<g fill="#000000" fill-opacity="1" stroke="#000000" stroke-opacity="1" stroke-width="1" stroke-linecap="square" stroke-linejoin="round" transform="matrix(1.99937,0,0,1.99937,0.000799749,179.943)"
font-family="Ubuntu" font-size="11" font-weight="400" font-style="normal" 
>
<path vector-effect="none" fill-rule="evenodd" d="M181.81,-26.377 L181.095,-22.856 L191.87,-24.334 L182.525,-29.898 L181.81,-26.377"/>
</g>

<g fill="none" stroke="#000000" stroke-opacity="1" stroke-width="1" stroke-linecap="square" stroke-linejoin="bevel" transform="matrix(1.99937,0,0,1.99937,0.000799749,179.943)"
font-family="Ubuntu" font-size="11" font-weight="400" font-style="normal" 
>
</g>

<g fill="none" stroke="#000000" stroke-opacity="1" stroke-width="1" stroke-linecap="square" stroke-linejoin="bevel" transform="matrix(1,0,0,1,0,0)"
font-family="Ubuntu" font-size="11" font-weight="400" font-style="normal" 
>
</g>
</g>
</svg>
