<?xml version="1.0" encoding="UTF-8" standalone="no"?>
<svg width="150.636mm" height="82.55mm"
 xmlns="http://www.w3.org/2000/svg" xmlns:xlink="http://www.w3.org/1999/xlink"  version="1.2" baseProfile="tiny">
<title>Qt SVG Document</title>
<desc>Generated with Qt</desc>
<defs>
</defs>
<g fill="none" stroke="black" stroke-width="1" fill-rule="evenodd" stroke-linecap="square" stroke-linejoin="bevel" >

<g fill="none" stroke="#000000" stroke-opacity="1" stroke-width="1" stroke-linecap="square" stroke-linejoin="bevel" transform="matrix(1,0,0,1,0,0)"
font-family="Sans Serif" font-size="9" font-weight="400" font-style="normal" 
>
</g>

<g fill="none" stroke="#000000" stroke-opacity="1" stroke-width="1" stroke-linecap="square" stroke-linejoin="bevel" transform="matrix(1,0,0,1,0,0)"
font-family="Sans Serif" font-size="9" font-weight="400" font-style="normal" 
>
</g>

<g fill="none" stroke="#000000" stroke-opacity="1" stroke-width="1" stroke-linecap="square" stroke-linejoin="bevel" transform="matrix(2,0,0,2,-0.0016,234)"
font-family="Sans Serif" font-size="9" font-weight="400" font-style="normal" 
>
</g>

<g fill="#ffffff" fill-opacity="1" stroke="none" transform="matrix(2,0,0,2,-0.0016,234)"
font-family="Sans Serif" font-size="9" font-weight="400" font-style="normal" 
>
<rect x="0.0008" y="-117" width="213.389" height="117"/>
</g>

<g fill="none" stroke="#000000" stroke-opacity="1" stroke-width="1" stroke-linecap="square" stroke-linejoin="bevel" transform="matrix(2,0,0,2,-0.0016,234)"
font-family="Sans Serif" font-size="9" font-weight="400" font-style="normal" 
>
</g>

<g fill="none" stroke="#000000" stroke-opacity="1" stroke-width="1" stroke-linecap="square" stroke-linejoin="bevel" transform="matrix(2,0,0,2,-0.0016,234)"
font-family="Sans Serif" font-size="9" font-weight="400" font-style="normal" 
>
</g>

<g fill="none" stroke="#000000" stroke-opacity="1" stroke-width="1" stroke-linecap="square" stroke-linejoin="bevel" transform="matrix(2,0,0,2,-0.0016,234)"
font-family="Sans Serif" font-size="9" font-weight="400" font-style="normal" 
>
</g>

<g fill="none" stroke="#000000" stroke-opacity="1" stroke-width="1" stroke-linecap="square" stroke-linejoin="bevel" transform="matrix(2,0,0,2,-0.0016,234)"
font-family="Sans Serif" font-size="9" font-weight="400" font-style="normal" 
>
</g>

<g fill="none" stroke="#000000" stroke-opacity="1" stroke-width="1" stroke-linecap="square" stroke-linejoin="round" transform="matrix(2,0,0,2,-0.0016,234)"
font-family="Sans Serif" font-size="9" font-weight="400" font-style="normal" 
>
<rect x="137.89" y="-89.5" width="53" height="35"/>
</g>

<g fill="none" stroke="#000000" stroke-opacity="1" stroke-width="1" stroke-linecap="square" stroke-linejoin="bevel" transform="matrix(2,0,0,2,-0.0016,234)"
font-family="Sans Serif" font-size="9" font-weight="400" font-style="normal" 
>
</g>

<g fill="none" stroke="#000000" stroke-opacity="1" stroke-width="1" stroke-linecap="square" stroke-linejoin="bevel" transform="matrix(2,0,0,2,300.091,77)"
font-family="Sans Serif" font-size="9" font-weight="400" font-style="normal" 
>
</g>

<g fill="none" stroke="#000000" stroke-opacity="1" stroke-width="1" stroke-linecap="square" stroke-linejoin="bevel" transform="matrix(2,0,0,2,300.091,77)"
font-family="sans" font-size="11" font-weight="100" font-style="normal" 
>
</g>

<g fill="#000000" fill-opacity="1" stroke="#000000" stroke-opacity="1" stroke-width="1" stroke-linecap="square" stroke-linejoin="round" transform="matrix(2,0,0,2,300.091,77)"
font-family="sans" font-size="11" font-weight="100" font-style="normal" 
>
<path vector-effect="none" fill-rule="nonzero" d="M2.96875,1.98438 L3.53125,1.98438 L0.734375,11.0156 L0.171875,11.0156 L2.96875,1.98438 M5.4375,8.64062 L5.4375,12.2812 L4.95312,12.2812 L4.95312,3.98438 L5.4375,3.98438 L5.4375,5.35938 C5.66667,4.83854 5.91146,4.47917 6.17188,4.28125 C6.57812,3.98958 6.96354,3.84375 7.32812,3.84375 C8.03646,3.84375 8.6276,4.13281 9.10156,4.71094 C9.57552,5.28906 9.8125,6.05208 9.8125,7 C9.8125,7.94792 9.57552,8.71094 9.10156,9.28906 C8.6276,9.86719 8.03646,10.1562 7.32812,10.1562 C6.96354,10.1562 6.57812,10.0052 6.17188,9.70312 C5.91146,9.51562 5.66667,9.16146 5.4375,8.64062 M8.67188,9.09375 C9.08854,8.67708 9.29688,7.97917 9.29688,7 C9.29688,6.02083 9.08854,5.32292 8.67188,4.90625 C8.25521,4.48958 7.81771,4.28125 7.35938,4.28125 C6.91146,4.28125 6.47917,4.48958 6.0625,4.90625 C5.65625,5.32292 5.45312,6.02083 5.45312,7 C5.45312,7.97917 5.65625,8.67708 6.0625,9.09375 C6.47917,9.51042 6.91146,9.71875 7.35938,9.71875 C7.81771,9.71875 8.25521,9.51042 8.67188,9.09375 M14.3281,6.60938 C13.526,6.60938 12.9505,6.75 12.6016,7.03125 C12.2526,7.3125 12.0781,7.72396 12.0781,8.26562 C12.0781,8.79688 12.224,9.17448 12.5156,9.39844 C12.8073,9.6224 13.151,9.73438 13.5469,9.73438 C14.2969,9.73438 14.8385,9.41667 15.1719,8.78125 C15.5052,8.13542 15.6719,7.53125 15.6719,6.96875 L15.6719,6.60938 L14.3281,6.60938 M16.1719,6.5625 L16.1719,10 L15.6719,10 L15.6719,8.35938 C15.401,9.16146 15.0365,9.67188 14.5781,9.89062 C14.224,10.0677 13.8646,10.1562 13.5,10.1562 C12.9062,10.1562 12.4375,9.99479 12.0938,9.67188 C11.75,9.34896 11.5781,8.8776 11.5781,8.25781 C11.5781,7.63802 11.8021,7.14062 12.25,6.76562 C12.6979,6.39062 13.4271,6.20312 14.4375,6.20312 L15.6719,6.20312 L15.6719,6.10938 C15.6719,5.57812 15.5156,5.14062 15.2031,4.79688 C14.9115,4.45312 14.4167,4.28125 13.7188,4.28125 C13.375,4.28125 13.026,4.34375 12.6719,4.46875 C12.4427,4.55208 12.1406,4.71875 11.7656,4.96875 L11.7656,4.4375 C12.0885,4.23958 12.3906,4.09896 12.6719,4.01562 C13.0677,3.90104 13.4479,3.84375 13.8125,3.84375 C14.5312,3.84375 15.1198,4.05729 15.5781,4.48438 C15.974,4.84896 16.1719,5.54167 16.1719,6.5625 M19.1719,2.28125 L19.1719,3.98438 L21.2031,3.98438 L21.2031,4.40625 L19.1719,4.40625 L19.1719,8.01562 C19.1719,8.47396 19.2292,8.79688 19.3438,8.98438 C19.5938,9.38021 19.9531,9.57812 20.4219,9.57812 L21.2031,9.57812 L21.2031,10 L20.4375,10 C19.9479,10 19.5312,9.85677 19.1875,9.57031 C18.8438,9.28385 18.6719,8.76562 18.6719,8.01562 L18.6719,4.40625 L17.9531,4.40625 L17.9531,3.98438 L18.6719,3.98438 L18.6719,2.28125 L19.1719,2.28125 M27.5156,6.375 L27.5156,10 L27.0156,10 L27.0156,6.40625 C27.0156,5.625 26.8854,5.07552 26.625,4.75781 C26.3646,4.4401 25.9688,4.28125 25.4375,4.28125 C24.8229,4.28125 24.3385,4.45833 23.9844,4.8125 C23.6302,5.16667 23.4531,5.76042 23.4531,6.59375 L23.4531,10 L22.9688,10 L22.9688,1.64062 L23.4531,1.64062 L23.4531,5.09375 C23.5677,4.79167 23.776,4.52083 24.0781,4.28125 C24.4219,3.98958 24.9115,3.84375 25.5469,3.84375 C26.151,3.84375 26.6302,4.05729 26.9844,4.48438 C27.3385,4.91146 27.5156,5.54167 27.5156,6.375 "/>
</g>

<g fill="none" stroke="#000000" stroke-opacity="1" stroke-width="1" stroke-linecap="square" stroke-linejoin="bevel" transform="matrix(2,0,0,2,300.091,77)"
font-family="sans" font-size="11" font-weight="100" font-style="normal" 
>
</g>

<g fill="none" stroke="#000000" stroke-opacity="1" stroke-width="1" stroke-linecap="square" stroke-linejoin="bevel" transform="matrix(2,0,0,2,300.091,77)"
font-family="Sans Serif" font-size="9" font-weight="400" font-style="normal" 
>
</g>

<g fill="none" stroke="#000000" stroke-opacity="1" stroke-width="1" stroke-linecap="square" stroke-linejoin="bevel" transform="matrix(2,0,0,2,-0.0016,234)"
font-family="Sans Serif" font-size="9" font-weight="400" font-style="normal" 
>
</g>

<g fill="none" stroke="#000000" stroke-opacity="1" stroke-width="1" stroke-linecap="square" stroke-linejoin="bevel" transform="matrix(2,0,0,2,-0.0016,234)"
font-family="Sans Serif" font-size="9" font-weight="400" font-style="normal" 
>
</g>

<g fill="none" stroke="#000000" stroke-opacity="1" stroke-width="1" stroke-linecap="square" stroke-linejoin="bevel" transform="matrix(2,0,0,2,-0.0016,234)"
font-family="Sans Serif" font-size="9" font-weight="400" font-style="normal" 
>
</g>

<g fill="none" stroke="#000000" stroke-opacity="1" stroke-width="1" stroke-linecap="square" stroke-linejoin="round" transform="matrix(2,0,0,2,-0.0016,234)"
font-family="Sans Serif" font-size="9" font-weight="400" font-style="normal" 
>
<rect x="115.89" y="-35.5" width="96.9992" height="35"/>
</g>

<g fill="none" stroke="#000000" stroke-opacity="1" stroke-width="1" stroke-linecap="square" stroke-linejoin="bevel" transform="matrix(2,0,0,2,-0.0016,234)"
font-family="Sans Serif" font-size="9" font-weight="400" font-style="normal" 
>
</g>

<g fill="none" stroke="#000000" stroke-opacity="1" stroke-width="1" stroke-linecap="square" stroke-linejoin="bevel" transform="matrix(2,0,0,2,245.232,185)"
font-family="Sans Serif" font-size="9" font-weight="400" font-style="normal" 
>
</g>

<g fill="none" stroke="#000000" stroke-opacity="1" stroke-width="1" stroke-linecap="square" stroke-linejoin="bevel" transform="matrix(2,0,0,2,245.232,185)"
font-family="sans" font-size="11" font-weight="100" font-style="normal" 
>
</g>

<g fill="#000000" fill-opacity="1" stroke="#000000" stroke-opacity="1" stroke-width="1" stroke-linecap="square" stroke-linejoin="round" transform="matrix(2,0,0,2,245.232,185)"
font-family="sans" font-size="11" font-weight="100" font-style="normal" 
>
<path vector-effect="none" fill-rule="nonzero" d="M2.96875,1.98438 L3.53125,1.98438 L0.734375,11.0156 L0.171875,11.0156 L2.96875,1.98438 M5.4375,8.64062 L5.4375,12.2812 L4.95312,12.2812 L4.95312,3.98438 L5.4375,3.98438 L5.4375,5.35938 C5.66667,4.83854 5.91146,4.47917 6.17188,4.28125 C6.57812,3.98958 6.96354,3.84375 7.32812,3.84375 C8.03646,3.84375 8.6276,4.13281 9.10156,4.71094 C9.57552,5.28906 9.8125,6.05208 9.8125,7 C9.8125,7.94792 9.57552,8.71094 9.10156,9.28906 C8.6276,9.86719 8.03646,10.1562 7.32812,10.1562 C6.96354,10.1562 6.57812,10.0052 6.17188,9.70312 C5.91146,9.51562 5.66667,9.16146 5.4375,8.64062 M8.67188,9.09375 C9.08854,8.67708 9.29688,7.97917 9.29688,7 C9.29688,6.02083 9.08854,5.32292 8.67188,4.90625 C8.25521,4.48958 7.81771,4.28125 7.35938,4.28125 C6.91146,4.28125 6.47917,4.48958 6.0625,4.90625 C5.65625,5.32292 5.45312,6.02083 5.45312,7 C5.45312,7.97917 5.65625,8.67708 6.0625,9.09375 C6.47917,9.51042 6.91146,9.71875 7.35938,9.71875 C7.81771,9.71875 8.25521,9.51042 8.67188,9.09375 M15.5,5.01562 C15.1458,4.52604 14.6615,4.28125 14.0469,4.28125 C13.4323,4.28125 12.9479,4.52604 12.5938,5.01562 C12.2396,5.49479 12.0625,6.15104 12.0625,6.98438 C12.0625,7.83854 12.2396,8.51042 12.5938,9 C12.9479,9.48958 13.4323,9.73438 14.0469,9.73438 C14.6615,9.73438 15.1458,9.48958 15.5,9 C15.8542,8.5 16.0312,7.82812 16.0312,6.98438 C16.0312,6.16146 15.8542,5.50521 15.5,5.01562 M14.0469,3.84375 C14.8073,3.84375 15.4115,4.13021 15.8594,4.70312 C16.3073,5.27604 16.5312,6.03646 16.5312,6.98438 C16.5312,7.97396 16.3073,8.75521 15.8594,9.32812 C15.4115,9.90104 14.8073,10.1875 14.0469,10.1875 C13.2656,10.1875 12.651,9.90104 12.2031,9.32812 C11.7656,8.75521 11.5469,7.97396 11.5469,6.98438 C11.5469,6.02604 11.7708,5.26302 12.2188,4.69531 C12.6667,4.1276 13.276,3.84375 14.0469,3.84375 M22.0469,4.15625 L22.0469,4.70312 C21.6927,4.50521 21.474,4.39583 21.3906,4.375 C21.1406,4.32292 20.8281,4.29167 20.4531,4.28125 C19.8906,4.28125 19.4479,4.39062 19.125,4.60938 C18.875,4.79688 18.75,5.11458 18.75,5.5625 C18.75,5.875 18.8698,6.11458 19.1094,6.28125 C19.349,6.46875 19.6979,6.61458 20.1562,6.71875 L20.5,6.78125 C21.0729,6.90625 21.5052,7.08333 21.7969,7.3125 C22.1406,7.58333 22.3177,7.92708 22.3281,8.34375 C22.3281,8.90625 22.1615,9.34896 21.8281,9.67188 C21.474,9.99479 20.8958,10.1562 20.0938,10.1562 C19.6562,10.1562 19.3229,10.125 19.0938,10.0625 C18.8125,9.98958 18.5208,9.89583 18.2188,9.78125 L18.2188,9.15625 C18.6562,9.40625 18.9375,9.55208 19.0625,9.59375 C19.4167,9.6875 19.7708,9.73438 20.125,9.73438 C20.6979,9.73438 21.125,9.61458 21.4062,9.375 C21.6875,9.125 21.8281,8.80729 21.8281,8.42188 C21.8281,8.08854 21.7344,7.84896 21.5469,7.70312 C21.276,7.48438 20.849,7.30729 20.2656,7.17188 L19.9219,7.09375 C19.4115,6.96875 19.026,6.80208 18.7656,6.59375 C18.4323,6.32292 18.2656,5.99479 18.2656,5.60938 C18.2656,4.98438 18.4661,4.53385 18.8672,4.25781 C19.2682,3.98177 19.7604,3.84375 20.3438,3.84375 C20.8438,3.84375 21.1875,3.86979 21.375,3.92188 C21.6042,3.98438 21.8281,4.0625 22.0469,4.15625 M29.0469,6.75 L29.0469,7.0625 L24.4844,7.0625 C24.4844,8.02083 24.6719,8.69792 25.0469,9.09375 C25.4635,9.52083 26.0781,9.73438 26.8906,9.73438 C27.1094,9.73438 27.3958,9.6875 27.75,9.59375 C28.1042,9.5 28.4583,9.35938 28.8125,9.17188 L28.8125,9.6875 C28.4583,9.84375 28.0964,9.96094 27.7266,10.0391 C27.3568,10.1172 27.0625,10.1562 26.8438,10.1562 C25.9167,10.1562 25.2188,9.90625 24.75,9.40625 C24.2396,8.875 23.9844,8.09375 23.9844,7.0625 C23.9844,5.98958 24.2135,5.1875 24.6719,4.65625 C25.151,4.11458 25.8177,3.84375 26.6719,3.84375 C27.4531,3.84375 28.0469,4.10417 28.4531,4.625 C28.849,5.16667 29.0469,5.875 29.0469,6.75 M28.5469,6.64062 C28.5469,5.79688 28.3542,5.18229 27.9688,4.79688 C27.6562,4.45312 27.224,4.28125 26.6719,4.28125 C26.0781,4.28125 25.5781,4.45833 25.1719,4.8125 C24.7969,5.14583 24.5729,5.75521 24.5,6.64062 L28.5469,6.64062 M35.4844,12.1719 L35.4844,12.5938 L29.7656,12.5938 L29.7656,12.1719 L35.4844,12.1719 M40.0312,4.15625 L40.0312,4.70312 C39.6771,4.50521 39.4583,4.39583 39.375,4.375 C39.125,4.32292 38.8125,4.29167 38.4375,4.28125 C37.875,4.28125 37.4323,4.39062 37.1094,4.60938 C36.8594,4.79688 36.7344,5.11458 36.7344,5.5625 C36.7344,5.875 36.8542,6.11458 37.0938,6.28125 C37.3333,6.46875 37.6823,6.61458 38.1406,6.71875 L38.4844,6.78125 C39.0573,6.90625 39.4896,7.08333 39.7812,7.3125 C40.125,7.58333 40.3021,7.92708 40.3125,8.34375 C40.3125,8.90625 40.1458,9.34896 39.8125,9.67188 C39.4583,9.99479 38.8802,10.1562 38.0781,10.1562 C37.6406,10.1562 37.3073,10.125 37.0781,10.0625 C36.7969,9.98958 36.5052,9.89583 36.2031,9.78125 L36.2031,9.15625 C36.6406,9.40625 36.9219,9.55208 37.0469,9.59375 C37.401,9.6875 37.7552,9.73438 38.1094,9.73438 C38.6823,9.73438 39.1094,9.61458 39.3906,9.375 C39.6719,9.125 39.8125,8.80729 39.8125,8.42188 C39.8125,8.08854 39.7188,7.84896 39.5312,7.70312 C39.2604,7.48438 38.8333,7.30729 38.25,7.17188 L37.9062,7.09375 C37.3958,6.96875 37.0104,6.80208 36.75,6.59375 C36.4167,6.32292 36.25,5.99479 36.25,5.60938 C36.25,4.98438 36.4505,4.53385 36.8516,4.25781 C37.2526,3.98177 37.7448,3.84375 38.3281,3.84375 C38.8281,3.84375 39.1719,3.86979 39.3594,3.92188 C39.5885,3.98438 39.8125,4.0625 40.0312,4.15625 M42.8594,2.28125 L42.8594,3.98438 L44.8906,3.98438 L44.8906,4.40625 L42.8594,4.40625 L42.8594,8.01562 C42.8594,8.47396 42.9167,8.79688 43.0312,8.98438 C43.2812,9.38021 43.6406,9.57812 44.1094,9.57812 L44.8906,9.57812 L44.8906,10 L44.125,10 C43.6354,10 43.2188,9.85677 42.875,9.57031 C42.5312,9.28385 42.3594,8.76562 42.3594,8.01562 L42.3594,4.40625 L41.6406,4.40625 L41.6406,3.98438 L42.3594,3.98438 L42.3594,2.28125 L42.8594,2.28125 M49.0625,6.60938 C48.2604,6.60938 47.6849,6.75 47.3359,7.03125 C46.987,7.3125 46.8125,7.72396 46.8125,8.26562 C46.8125,8.79688 46.9583,9.17448 47.25,9.39844 C47.5417,9.6224 47.8854,9.73438 48.2812,9.73438 C49.0312,9.73438 49.5729,9.41667 49.9062,8.78125 C50.2396,8.13542 50.4062,7.53125 50.4062,6.96875 L50.4062,6.60938 L49.0625,6.60938 M50.9062,6.5625 L50.9062,10 L50.4062,10 L50.4062,8.35938 C50.1354,9.16146 49.7708,9.67188 49.3125,9.89062 C48.9583,10.0677 48.599,10.1562 48.2344,10.1562 C47.6406,10.1562 47.1719,9.99479 46.8281,9.67188 C46.4844,9.34896 46.3125,8.8776 46.3125,8.25781 C46.3125,7.63802 46.5365,7.14062 46.9844,6.76562 C47.4323,6.39062 48.1615,6.20312 49.1719,6.20312 L50.4062,6.20312 L50.4062,6.10938 C50.4062,5.57812 50.25,5.14062 49.9375,4.79688 C49.6458,4.45312 49.151,4.28125 48.4531,4.28125 C48.1094,4.28125 47.7604,4.34375 47.4062,4.46875 C47.1771,4.55208 46.875,4.71875 46.5,4.96875 L46.5,4.4375 C46.8229,4.23958 47.125,4.09896 47.4062,4.01562 C47.8021,3.90104 48.1823,3.84375 48.5469,3.84375 C49.2656,3.84375 49.8542,4.05729 50.3125,4.48438 C50.7083,4.84896 50.9062,5.54167 50.9062,6.5625 M57.7188,5.29688 C57.9062,4.80729 58.1979,4.44271 58.5938,4.20312 C58.9792,3.96354 59.4323,3.84375 59.9531,3.84375 C60.474,3.84375 60.8906,4.02604 61.2031,4.39062 C61.526,4.75521 61.6875,5.41667 61.6875,6.375 L61.6875,10 L61.2031,10 L61.2031,6.40625 C61.2031,5.57292 61.0885,5.01042 60.8594,4.71875 C60.6302,4.42708 60.3229,4.28125 59.9375,4.28125 C59.3854,4.28125 58.901,4.44792 58.4844,4.78125 C58.0156,5.15625 57.7812,5.76042 57.7812,6.59375 L57.7812,10 L57.2969,10 L57.2969,6.40625 C57.2969,5.60417 57.1849,5.04948 56.9609,4.74219 C56.737,4.4349 56.4271,4.28125 56.0312,4.28125 C55.4792,4.28125 54.9948,4.45312 54.5781,4.79688 C54.1094,5.16146 53.875,5.76042 53.875,6.59375 L53.875,10 L53.3906,10 L53.3906,3.98438 L53.875,3.98438 L53.875,5.10938 C54.0521,4.71354 54.3281,4.40104 54.7031,4.17188 C55.0677,3.95312 55.5208,3.84375 56.0625,3.84375 C56.4167,3.84375 56.7552,3.95833 57.0781,4.1875 C57.3281,4.375 57.5417,4.74479 57.7188,5.29688 M64.5781,8.64062 L64.5781,12.2812 L64.0938,12.2812 L64.0938,3.98438 L64.5781,3.98438 L64.5781,5.35938 C64.8073,4.83854 65.0521,4.47917 65.3125,4.28125 C65.7188,3.98958 66.1042,3.84375 66.4688,3.84375 C67.1771,3.84375 67.7682,4.13281 68.2422,4.71094 C68.7161,5.28906 68.9531,6.05208 68.9531,7 C68.9531,7.94792 68.7161,8.71094 68.2422,9.28906 C67.7682,9.86719 67.1771,10.1562 66.4688,10.1562 C66.1042,10.1562 65.7188,10.0052 65.3125,9.70312 C65.0521,9.51562 64.8073,9.16146 64.5781,8.64062 M67.8125,9.09375 C68.2292,8.67708 68.4375,7.97917 68.4375,7 C68.4375,6.02083 68.2292,5.32292 67.8125,4.90625 C67.3958,4.48958 66.9583,4.28125 66.5,4.28125 C66.0521,4.28125 65.6198,4.48958 65.2031,4.90625 C64.7969,5.32292 64.5938,6.02083 64.5938,7 C64.5938,7.97917 64.7969,8.67708 65.2031,9.09375 C65.6198,9.51042 66.0521,9.71875 66.5,9.71875 C66.9583,9.71875 67.3958,9.51042 67.8125,9.09375 M75.75,6.75 L75.75,7.0625 L71.1875,7.0625 C71.1875,8.02083 71.375,8.69792 71.75,9.09375 C72.1667,9.52083 72.7812,9.73438 73.5938,9.73438 C73.8125,9.73438 74.099,9.6875 74.4531,9.59375 C74.8073,9.5 75.1615,9.35938 75.5156,9.17188 L75.5156,9.6875 C75.1615,9.84375 74.7995,9.96094 74.4297,10.0391 C74.0599,10.1172 73.7656,10.1562 73.5469,10.1562 C72.6198,10.1562 71.9219,9.90625 71.4531,9.40625 C70.9427,8.875 70.6875,8.09375 70.6875,7.0625 C70.6875,5.98958 70.9167,5.1875 71.375,4.65625 C71.8542,4.11458 72.5208,3.84375 73.375,3.84375 C74.1562,3.84375 74.75,4.10417 75.1562,4.625 C75.5521,5.16667 75.75,5.875 75.75,6.75 M75.25,6.64062 C75.25,5.79688 75.0573,5.18229 74.6719,4.79688 C74.3594,4.45312 73.9271,4.28125 73.375,4.28125 C72.7812,4.28125 72.2812,4.45833 71.875,4.8125 C71.5,5.14583 71.276,5.75521 71.2031,6.64062 L75.25,6.64062 M81.8281,5.35938 L81.8281,1.64062 L82.2969,1.64062 L82.2969,10 L81.8281,10 L81.8281,8.64062 C81.599,9.16146 81.349,9.51562 81.0781,9.70312 C80.6823,10.0052 80.3021,10.1562 79.9375,10.1562 C79.2292,10.1562 78.638,9.86719 78.1641,9.28906 C77.6901,8.71094 77.4531,7.94792 77.4531,7 C77.4531,6.05208 77.6901,5.28906 78.1641,4.71094 C78.638,4.13281 79.2292,3.84375 79.9375,3.84375 C80.3021,3.84375 80.6823,3.98958 81.0781,4.28125 C81.349,4.47917 81.599,4.83854 81.8281,5.35938 M78.5938,4.90625 C78.1771,5.32292 77.9688,6.02083 77.9688,7 C77.9688,7.97917 78.1771,8.67708 78.5938,9.09375 C79.0104,9.51042 79.4479,9.71875 79.9062,9.71875 C80.3542,9.71875 80.7865,9.51042 81.2031,9.09375 C81.6094,8.67708 81.8125,7.97917 81.8125,7 C81.8125,6.02083 81.6094,5.32292 81.2031,4.90625 C80.7865,4.48958 80.3542,4.28125 79.9062,4.28125 C79.4479,4.28125 79.0104,4.48958 78.5938,4.90625 "/>
</g>

<g fill="none" stroke="#000000" stroke-opacity="1" stroke-width="1" stroke-linecap="square" stroke-linejoin="bevel" transform="matrix(2,0,0,2,245.232,185)"
font-family="sans" font-size="11" font-weight="100" font-style="normal" 
>
</g>

<g fill="none" stroke="#000000" stroke-opacity="1" stroke-width="1" stroke-linecap="square" stroke-linejoin="bevel" transform="matrix(2,0,0,2,245.232,185)"
font-family="Sans Serif" font-size="9" font-weight="400" font-style="normal" 
>
</g>

<g fill="none" stroke="#000000" stroke-opacity="1" stroke-width="1" stroke-linecap="square" stroke-linejoin="bevel" transform="matrix(2,0,0,2,-0.0016,234)"
font-family="Sans Serif" font-size="9" font-weight="400" font-style="normal" 
>
</g>

<g fill="none" stroke="#000000" stroke-opacity="1" stroke-width="1" stroke-linecap="square" stroke-linejoin="bevel" transform="matrix(2,0,0,2,-0.0016,234)"
font-family="Sans Serif" font-size="9" font-weight="400" font-style="normal" 
>
</g>

<g fill="none" stroke="#000000" stroke-opacity="1" stroke-width="1" stroke-linecap="square" stroke-linejoin="bevel" transform="matrix(2,0,0,2,-0.0016,234)"
font-family="Sans Serif" font-size="9" font-weight="400" font-style="normal" 
>
</g>

<g fill="none" stroke="#000000" stroke-opacity="1" stroke-width="1" stroke-linecap="square" stroke-linejoin="round" transform="matrix(2,0,0,2,-0.0016,234)"
font-family="Sans Serif" font-size="9" font-weight="400" font-style="normal" 
>
<ellipse cx="50.696" cy="-99" rx="50.1952" ry="17.5"/>
</g>

<g fill="none" stroke="#000000" stroke-opacity="1" stroke-width="1" stroke-linecap="square" stroke-linejoin="bevel" transform="matrix(2,0,0,2,-0.0016,234)"
font-family="Sans Serif" font-size="9" font-weight="400" font-style="normal" 
>
</g>

<g fill="none" stroke="#000000" stroke-opacity="1" stroke-width="1" stroke-linecap="square" stroke-linejoin="bevel" transform="matrix(2,0,0,2,40.9529,23)"
font-family="Sans Serif" font-size="9" font-weight="400" font-style="normal" 
>
</g>

<g fill="none" stroke="#000000" stroke-opacity="1" stroke-width="1" stroke-linecap="square" stroke-linejoin="bevel" transform="matrix(2,0,0,2,40.9529,23)"
font-family="sans" font-size="11" font-weight="100" font-style="normal" 
>
</g>

<g fill="#000000" fill-opacity="1" stroke="#000000" stroke-opacity="1" stroke-width="1" stroke-linecap="square" stroke-linejoin="round" transform="matrix(2,0,0,2,40.9529,23)"
font-family="sans" font-size="11" font-weight="100" font-style="normal" 
>
<path vector-effect="none" fill-rule="nonzero" d="M2.96875,1.98438 L3.53125,1.98438 L0.734375,11.0156 L0.171875,11.0156 L2.96875,1.98438 M8.53125,5.01562 C8.17708,4.52604 7.69271,4.28125 7.07812,4.28125 C6.46354,4.28125 5.97917,4.52604 5.625,5.01562 C5.27083,5.49479 5.09375,6.15104 5.09375,6.98438 C5.09375,7.83854 5.27083,8.51042 5.625,9 C5.97917,9.48958 6.46354,9.73438 7.07812,9.73438 C7.69271,9.73438 8.17708,9.48958 8.53125,9 C8.88542,8.5 9.0625,7.82812 9.0625,6.98438 C9.0625,6.16146 8.88542,5.50521 8.53125,5.01562 M7.07812,3.84375 C7.83854,3.84375 8.44271,4.13021 8.89062,4.70312 C9.33854,5.27604 9.5625,6.03646 9.5625,6.98438 C9.5625,7.97396 9.33854,8.75521 8.89062,9.32812 C8.44271,9.90104 7.83854,10.1875 7.07812,10.1875 C6.29688,10.1875 5.68229,9.90104 5.23438,9.32812 C4.79688,8.75521 4.57812,7.97396 4.57812,6.98438 C4.57812,6.02604 4.80208,5.26302 5.25,4.69531 C5.69792,4.1276 6.30729,3.84375 7.07812,3.84375 M11.6562,3.98438 L12.1562,3.98438 L12.1562,10 L11.6562,10 L11.6562,3.98438 M11.6562,1.64062 L12.1562,1.64062 L12.1562,2.3125 L11.6562,2.3125 L11.6562,1.64062 M19.2656,6.375 L19.2656,10 L18.7656,10 L18.7656,6.40625 C18.7656,5.625 18.6406,5.07552 18.3906,4.75781 C18.1406,4.4401 17.7708,4.28125 17.2812,4.28125 C16.7083,4.28125 16.224,4.45312 15.8281,4.79688 C15.4115,5.14062 15.2031,5.73958 15.2031,6.59375 L15.2031,10 L14.7188,10 L14.7188,3.98438 L15.2031,3.98438 L15.2031,5.10938 C15.3802,4.74479 15.6146,4.46875 15.9062,4.28125 C16.3229,3.98958 16.7865,3.84375 17.2969,3.84375 C17.901,3.84375 18.3802,4.04688 18.7344,4.45312 C19.0885,4.84896 19.2656,5.48958 19.2656,6.375 M22.2031,2.28125 L22.2031,3.98438 L24.2344,3.98438 L24.2344,4.40625 L22.2031,4.40625 L22.2031,8.01562 C22.2031,8.47396 22.2604,8.79688 22.375,8.98438 C22.625,9.38021 22.9844,9.57812 23.4531,9.57812 L24.2344,9.57812 L24.2344,10 L23.4688,10 C22.9792,10 22.5625,9.85677 22.2188,9.57031 C21.875,9.28385 21.7031,8.76562 21.7031,8.01562 L21.7031,4.40625 L20.9844,4.40625 L20.9844,3.98438 L21.7031,3.98438 L21.7031,2.28125 L22.2031,2.28125 M30.3594,12.1719 L30.3594,12.5938 L24.6406,12.5938 L24.6406,12.1719 L30.3594,12.1719 M35.6094,4.28125 L35.6094,4.79688 C35.3177,4.61979 35.0729,4.5 34.875,4.4375 C34.5417,4.33333 34.224,4.28125 33.9219,4.28125 C33.0573,4.28125 32.4375,4.5026 32.0625,4.94531 C31.6875,5.38802 31.5,6.07292 31.5,7 C31.5,7.9375 31.6875,8.6276 32.0625,9.07031 C32.4375,9.51302 33.0573,9.73438 33.9219,9.73438 C34.2135,9.73438 34.4948,9.69271 34.7656,9.60938 C35.0573,9.53646 35.3385,9.42188 35.6094,9.26562 L35.6094,9.76562 C35.3385,9.90104 35.0573,10 34.7656,10.0625 C34.4635,10.125 34.1667,10.1562 33.875,10.1562 C33,10.1562 32.3021,9.91667 31.7812,9.4375 C31.2604,8.95833 31,8.14323 31,6.99219 C31,5.84115 31.2604,5.02604 31.7812,4.54688 C32.3021,4.07812 33,3.84375 33.875,3.84375 C34.1667,3.84375 34.474,3.88542 34.7969,3.96875 C35.1198,4.04167 35.3906,4.14583 35.6094,4.28125 M37.5469,1.64062 L38.0312,1.64062 L38.0312,10 L37.5469,10 L37.5469,1.64062 M40.5781,3.98438 L41.0781,3.98438 L41.0781,10 L40.5781,10 L40.5781,3.98438 M40.5781,1.64062 L41.0781,1.64062 L41.0781,2.3125 L40.5781,2.3125 L40.5781,1.64062 M48.3281,6.75 L48.3281,7.0625 L43.7656,7.0625 C43.7656,8.02083 43.9531,8.69792 44.3281,9.09375 C44.7448,9.52083 45.3594,9.73438 46.1719,9.73438 C46.3906,9.73438 46.6771,9.6875 47.0312,9.59375 C47.3854,9.5 47.7396,9.35938 48.0938,9.17188 L48.0938,9.6875 C47.7396,9.84375 47.3776,9.96094 47.0078,10.0391 C46.638,10.1172 46.3438,10.1562 46.125,10.1562 C45.1979,10.1562 44.5,9.90625 44.0312,9.40625 C43.5208,8.875 43.2656,8.09375 43.2656,7.0625 C43.2656,5.98958 43.4948,5.1875 43.9531,4.65625 C44.4323,4.11458 45.099,3.84375 45.9531,3.84375 C46.7344,3.84375 47.3281,4.10417 47.7344,4.625 C48.1302,5.16667 48.3281,5.875 48.3281,6.75 M47.8281,6.64062 C47.8281,5.79688 47.6354,5.18229 47.25,4.79688 C46.9375,4.45312 46.5052,4.28125 45.9531,4.28125 C45.3594,4.28125 44.8594,4.45833 44.4531,4.8125 C44.0781,5.14583 43.8542,5.75521 43.7812,6.64062 L47.8281,6.64062 M54.9531,6.375 L54.9531,10 L54.4531,10 L54.4531,6.40625 C54.4531,5.625 54.3281,5.07552 54.0781,4.75781 C53.8281,4.4401 53.4583,4.28125 52.9688,4.28125 C52.3958,4.28125 51.9115,4.45312 51.5156,4.79688 C51.099,5.14062 50.8906,5.73958 50.8906,6.59375 L50.8906,10 L50.4062,10 L50.4062,3.98438 L50.8906,3.98438 L50.8906,5.10938 C51.0677,4.74479 51.3021,4.46875 51.5938,4.28125 C52.0104,3.98958 52.474,3.84375 52.9844,3.84375 C53.5885,3.84375 54.0677,4.04688 54.4219,4.45312 C54.776,4.84896 54.9531,5.48958 54.9531,6.375 M57.8906,2.28125 L57.8906,3.98438 L59.9219,3.98438 L59.9219,4.40625 L57.8906,4.40625 L57.8906,8.01562 C57.8906,8.47396 57.9479,8.79688 58.0625,8.98438 C58.3125,9.38021 58.6719,9.57812 59.1406,9.57812 L59.9219,9.57812 L59.9219,10 L59.1562,10 C58.6667,10 58.25,9.85677 57.9062,9.57031 C57.5625,9.28385 57.3906,8.76562 57.3906,8.01562 L57.3906,4.40625 L56.6719,4.40625 L56.6719,3.98438 L57.3906,3.98438 L57.3906,2.28125 L57.8906,2.28125"/>
</g>

<g fill="none" stroke="#000000" stroke-opacity="1" stroke-width="1" stroke-linecap="square" stroke-linejoin="bevel" transform="matrix(2,0,0,2,40.9529,23)"
font-family="sans" font-size="11" font-weight="100" font-style="normal" 
>
</g>

<g fill="none" stroke="#000000" stroke-opacity="1" stroke-width="1" stroke-linecap="square" stroke-linejoin="bevel" transform="matrix(2,0,0,2,40.9529,23)"
font-family="Sans Serif" font-size="9" font-weight="400" font-style="normal" 
>
</g>

<g fill="none" stroke="#000000" stroke-opacity="1" stroke-width="1" stroke-linecap="square" stroke-linejoin="bevel" transform="matrix(2,0,0,2,-0.0016,234)"
font-family="Sans Serif" font-size="9" font-weight="400" font-style="normal" 
>
</g>

<g fill="none" stroke="#000000" stroke-opacity="1" stroke-width="1" stroke-linecap="square" stroke-linejoin="bevel" transform="matrix(2,0,0,2,-0.0016,234)"
font-family="Sans Serif" font-size="9" font-weight="400" font-style="normal" 
>
</g>

<g fill="none" stroke="#000000" stroke-opacity="1" stroke-width="1" stroke-linecap="square" stroke-linejoin="bevel" transform="matrix(2,0,0,2,-0.0016,234)"
font-family="Sans Serif" font-size="9" font-weight="400" font-style="normal" 
>
</g>

<g fill="none" stroke="#000000" stroke-opacity="1" stroke-width="1" stroke-linecap="square" stroke-linejoin="round" transform="matrix(2,0,0,2,-0.0016,234)"
font-family="Sans Serif" font-size="9" font-weight="400" font-style="normal" 
>
<ellipse cx="50.696" cy="-45" rx="26.5" ry="17.5"/>
</g>

<g fill="none" stroke="#000000" stroke-opacity="1" stroke-width="1" stroke-linecap="square" stroke-linejoin="bevel" transform="matrix(2,0,0,2,-0.0016,234)"
font-family="Sans Serif" font-size="9" font-weight="400" font-style="normal" 
>
</g>

<g fill="none" stroke="#000000" stroke-opacity="1" stroke-width="1" stroke-linecap="square" stroke-linejoin="bevel" transform="matrix(2,0,0,2,76.6404,131)"
font-family="Sans Serif" font-size="9" font-weight="400" font-style="normal" 
>
</g>

<g fill="none" stroke="#000000" stroke-opacity="1" stroke-width="1" stroke-linecap="square" stroke-linejoin="bevel" transform="matrix(2,0,0,2,76.6404,131)"
font-family="sans" font-size="11" font-weight="100" font-style="normal" 
>
</g>

<g fill="#000000" fill-opacity="1" stroke="#000000" stroke-opacity="1" stroke-width="1" stroke-linecap="square" stroke-linejoin="round" transform="matrix(2,0,0,2,76.6404,131)"
font-family="sans" font-size="11" font-weight="100" font-style="normal" 
>
<path vector-effect="none" fill-rule="nonzero" d="M2.96875,1.98438 L3.53125,1.98438 L0.734375,11.0156 L0.171875,11.0156 L2.96875,1.98438 M8.53125,5.01562 C8.17708,4.52604 7.69271,4.28125 7.07812,4.28125 C6.46354,4.28125 5.97917,4.52604 5.625,5.01562 C5.27083,5.49479 5.09375,6.15104 5.09375,6.98438 C5.09375,7.83854 5.27083,8.51042 5.625,9 C5.97917,9.48958 6.46354,9.73438 7.07812,9.73438 C7.69271,9.73438 8.17708,9.48958 8.53125,9 C8.88542,8.5 9.0625,7.82812 9.0625,6.98438 C9.0625,6.16146 8.88542,5.50521 8.53125,5.01562 M7.07812,3.84375 C7.83854,3.84375 8.44271,4.13021 8.89062,4.70312 C9.33854,5.27604 9.5625,6.03646 9.5625,6.98438 C9.5625,7.97396 9.33854,8.75521 8.89062,9.32812 C8.44271,9.90104 7.83854,10.1875 7.07812,10.1875 C6.29688,10.1875 5.68229,9.90104 5.23438,9.32812 C4.79688,8.75521 4.57812,7.97396 4.57812,6.98438 C4.57812,6.02604 4.80208,5.26302 5.25,4.69531 C5.69792,4.1276 6.30729,3.84375 7.07812,3.84375 M11.6562,3.98438 L12.1562,3.98438 L12.1562,10 L11.6562,10 L11.6562,3.98438 M11.6562,1.64062 L12.1562,1.64062 L12.1562,2.3125 L11.6562,2.3125 L11.6562,1.64062 M19.2656,6.375 L19.2656,10 L18.7656,10 L18.7656,6.40625 C18.7656,5.625 18.6406,5.07552 18.3906,4.75781 C18.1406,4.4401 17.7708,4.28125 17.2812,4.28125 C16.7083,4.28125 16.224,4.45312 15.8281,4.79688 C15.4115,5.14062 15.2031,5.73958 15.2031,6.59375 L15.2031,10 L14.7188,10 L14.7188,3.98438 L15.2031,3.98438 L15.2031,5.10938 C15.3802,4.74479 15.6146,4.46875 15.9062,4.28125 C16.3229,3.98958 16.7865,3.84375 17.2969,3.84375 C17.901,3.84375 18.3802,4.04688 18.7344,4.45312 C19.0885,4.84896 19.2656,5.48958 19.2656,6.375 M22.2031,2.28125 L22.2031,3.98438 L24.2344,3.98438 L24.2344,4.40625 L22.2031,4.40625 L22.2031,8.01562 C22.2031,8.47396 22.2604,8.79688 22.375,8.98438 C22.625,9.38021 22.9844,9.57812 23.4531,9.57812 L24.2344,9.57812 L24.2344,10 L23.4688,10 C22.9792,10 22.5625,9.85677 22.2188,9.57031 C21.875,9.28385 21.7031,8.76562 21.7031,8.01562 L21.7031,4.40625 L20.9844,4.40625 L20.9844,3.98438 L21.7031,3.98438 L21.7031,2.28125 L22.2031,2.28125"/>
</g>

<g fill="none" stroke="#000000" stroke-opacity="1" stroke-width="1" stroke-linecap="square" stroke-linejoin="bevel" transform="matrix(2,0,0,2,76.6404,131)"
font-family="sans" font-size="11" font-weight="100" font-style="normal" 
>
</g>

<g fill="none" stroke="#000000" stroke-opacity="1" stroke-width="1" stroke-linecap="square" stroke-linejoin="bevel" transform="matrix(2,0,0,2,76.6404,131)"
font-family="Sans Serif" font-size="9" font-weight="400" font-style="normal" 
>
</g>

<g fill="none" stroke="#000000" stroke-opacity="1" stroke-width="1" stroke-linecap="square" stroke-linejoin="bevel" transform="matrix(2,0,0,2,-0.0016,234)"
font-family="Sans Serif" font-size="9" font-weight="400" font-style="normal" 
>
</g>

<g fill="none" stroke="#000000" stroke-opacity="1" stroke-width="1" stroke-linecap="square" stroke-linejoin="bevel" transform="matrix(2,0,0,2,-0.0016,234)"
font-family="Sans Serif" font-size="9" font-weight="400" font-style="normal" 
>
</g>

<g fill="none" stroke="#000000" stroke-opacity="1" stroke-width="1" stroke-linecap="square" stroke-linejoin="bevel" transform="matrix(2,0,0,2,-0.0016,234)"
font-family="Sans Serif" font-size="9" font-weight="400" font-style="normal" 
>
</g>

<g fill="none" stroke="#000000" stroke-opacity="1" stroke-width="1" stroke-linecap="square" stroke-linejoin="round" transform="matrix(2,0,0,2,-0.0016,234)"
font-family="Sans Serif" font-size="9" font-weight="400" font-style="normal" 
>
<path vector-effect="none" fill-rule="evenodd" d="M76.208,-50.925 C91.204,-54.55 110.66,-59.253 127.38,-63.296 "/>
</g>

<g fill="none" stroke="#000000" stroke-opacity="1" stroke-width="1" stroke-linecap="square" stroke-linejoin="bevel" transform="matrix(2,0,0,2,-0.0016,234)"
font-family="Sans Serif" font-size="9" font-weight="400" font-style="normal" 
>
</g>

<g fill="none" stroke="#000000" stroke-opacity="1" stroke-width="1" stroke-linecap="square" stroke-linejoin="bevel" transform="matrix(2,0,0,2,-0.0016,234)"
font-family="Sans Serif" font-size="9" font-weight="400" font-style="normal" 
>
</g>

<g fill="#000000" fill-opacity="1" stroke="#000000" stroke-opacity="1" stroke-width="1" stroke-linecap="square" stroke-linejoin="round" transform="matrix(2,0,0,2,-0.0016,234)"
font-family="Sans Serif" font-size="9" font-weight="400" font-style="normal" 
>
<path vector-effect="none" fill-rule="evenodd" d="M127.38,-63.296 L128.226,-59.796 L137.38,-65.713 L126.534,-66.796 L127.38,-63.296"/>
</g>

<g fill="none" stroke="#000000" stroke-opacity="1" stroke-width="1" stroke-linecap="square" stroke-linejoin="bevel" transform="matrix(2,0,0,2,-0.0016,234)"
font-family="Sans Serif" font-size="9" font-weight="400" font-style="normal" 
>
</g>

<g fill="none" stroke="#000000" stroke-opacity="1" stroke-width="1" stroke-linecap="square" stroke-linejoin="bevel" transform="matrix(2,0,0,2,-0.0016,234)"
font-family="Sans Serif" font-size="9" font-weight="400" font-style="normal" 
>
</g>

<g fill="none" stroke="#000000" stroke-opacity="1" stroke-width="1" stroke-linecap="square" stroke-linejoin="bevel" transform="matrix(2,0,0,2,-0.0016,234)"
font-family="Sans Serif" font-size="9" font-weight="400" font-style="normal" 
>
</g>

<g fill="none" stroke="#000000" stroke-opacity="1" stroke-width="1" stroke-linecap="square" stroke-linejoin="bevel" transform="matrix(2,0,0,2,-0.0016,234)"
font-family="Sans Serif" font-size="9" font-weight="400" font-style="normal" 
>
</g>

<g fill="none" stroke="#000000" stroke-opacity="1" stroke-width="1" stroke-linecap="square" stroke-linejoin="round" transform="matrix(2,0,0,2,-0.0016,234)"
font-family="Sans Serif" font-size="9" font-weight="400" font-style="normal" 
>
<path vector-effect="none" fill-rule="evenodd" d="M76.208,-39.075 C84.87,-36.981 95.019,-34.527 105.27,-32.049 "/>
</g>

<g fill="none" stroke="#000000" stroke-opacity="1" stroke-width="1" stroke-linecap="square" stroke-linejoin="bevel" transform="matrix(2,0,0,2,-0.0016,234)"
font-family="Sans Serif" font-size="9" font-weight="400" font-style="normal" 
>
</g>

<g fill="none" stroke="#000000" stroke-opacity="1" stroke-width="1" stroke-linecap="square" stroke-linejoin="bevel" transform="matrix(2,0,0,2,-0.0016,234)"
font-family="Sans Serif" font-size="9" font-weight="400" font-style="normal" 
>
</g>

<g fill="#000000" fill-opacity="1" stroke="#000000" stroke-opacity="1" stroke-width="1" stroke-linecap="square" stroke-linejoin="round" transform="matrix(2,0,0,2,-0.0016,234)"
font-family="Sans Serif" font-size="9" font-weight="400" font-style="normal" 
>
<path vector-effect="none" fill-rule="evenodd" d="M105.27,-32.049 L104.44,-28.612 L115.09,-29.677 L106.1,-35.486 L105.27,-32.049"/>
</g>

<g fill="none" stroke="#000000" stroke-opacity="1" stroke-width="1" stroke-linecap="square" stroke-linejoin="bevel" transform="matrix(2,0,0,2,-0.0016,234)"
font-family="Sans Serif" font-size="9" font-weight="400" font-style="normal" 
>
</g>

<g fill="none" stroke="#000000" stroke-opacity="1" stroke-width="1" stroke-linecap="square" stroke-linejoin="bevel" transform="matrix(1,0,0,1,0,0)"
font-family="Sans Serif" font-size="9" font-weight="400" font-style="normal" 
>
</g>
</g>
</svg>
